- 
http://www.Speed.Cd      fast  and The Hottest Private Tracker on the net

   signup is open now

Please Seed back to make the speed Faster!!!

------------------nfo--------------------------
-[pre][img]http://i.imgur.com/KDIkK.jpg[/img]

*******************************************************************************
                   Warrior.2011.DVDSCR.XviD.AC3-PRESTiGE
*******************************************************************************


[color=red]General Information:[/color]

Complete name                    : Warrior.2011.DVDSCR.XviD.AC3-PRESTiGE
Format                           : AVI
Format/Info                      : Audio Video Interleave
File size                        : 1.37 GiB
Duration                         : 2h 19mn
Overall bit rate                 : 1 397 Kbps
Subs				 : English Sub (If needed)
Source				 : CM8 Many THANKS
Encoder				 : [b][color=maroon]akosipalos[/color][/b]


iMDB: http://www.imdb.com/title/tt1291584/


[color=red]Video[/color]

ID                               : 0
Format                           : MPEG-4 Visual
Format profile                   : Advanced Simple@L5
Format settings, BVOP            : 2
Format settings, QPel            : No
Format settings, GMC             : No warppoints
Format settings, Matrix          : Default (H.263)
Codec ID                         : XVID
Codec ID/Hint                    : XviD
Duration                         : 2h 19mn
Bit rate                         : 942 Kbps
Width                            : 720 pixels
Height                           : 304 pixels
Display aspect ratio             : 2.35:1
Frame rate                       : 23.976 fps
Color space                      : YUV
Chroma subsampling               : 4:2:0
Bit depth                        : 8 bits
Scan type                        : Progressive
Compression mode                 : Lossy
Bits/(Pixel*Frame)               : 0.179
Stream size                      : 942 MiB (67%)
Writing library                  : XviD 1.2.1 (UTC 2008-12-04)

[color=red]Audio[/color]

ID                               : 1
Format                           : AC-3
Format/Info                      : Audio Coding 3
Mode extension                   : CM (complete main)
Codec ID                         : 2000
Duration                         : 2h 19mn
Bit rate mode                    : Constant
Bit rate                         : 448 Kbps
Channel(s)                       : 2 channels
Channel positions                : Front: L R
Sampling rate                    : 48.0 KHz
Bit depth                        : 16 bits
Compression mode                 : Lossy
Stream size                      : 448 MiB (32%)
Alignment                        : Aligned on interleaves
Interleave, duration             : 64 ms (1.53 video frames)
Interleave, preload duration     : 192 ms


[color=red]Plot:[/color]

The youngest son (Hardy) of an alcoholic former boxer (Nolte) returns home, where he's trained 
by his father for competition in a mixed martial arts tournament...


[color=red]Cast:[/color]

Tom Hardy, Nick Nolte and Joel Edgerton


[color=red]Screens:[/color]

[img]http://i824.photobucket.com/albums/zz161/akosipalos/1-163.png[/img]

[img]http://i824.photobucket.com/albums/zz161/akosipalos/2-142.png[/img]

[img]http://i824.photobucket.com/albums/zz161/akosipalos/3-142.png[/img]

[img]http://i824.photobucket.com/albums/zz161/akosipalos/4-137.png[/img]

[img]http://i824.photobucket.com/albums/zz161/akosipalos/5-112.png[/img]


[color=red]Release Notes:[/color]

WE DONT RELEASE EVERYTHING TO OTHERS SITES YOU WANT MORE OF OUR STUFF COME FIND US AT .......

WE ARE LOOKING FOR SUPPLIERS BLURAY CAM R5 PRE RETAIL DVD GOT SOMETHING WE MIGHT LIKE WHEN YOU FIND US TELL US.......



ENCODER'S - ANYTHING AT ALL EMAIL US AT..... prestige@hushmail.me

** ** ** ** ** ** ** ** **

PRESTiGE is the level of respect at which one is regarded by others....RIzE Above Or Sink Below...


-------------------------------------------------------------------------------
                                 GREETZ:
-------------------------------------------------------------------------------


| Twisted | Bigguy | CTFX | Whitestag13 | Jungledave | PA4U2C | mtyy | floridajoe | marsby | cld | Stortrapp | Stoner |
Rock | Ulap | rizal | mannilim | musikera | centserick2 | AMB | RiZAL Team RG | rock3r | canislupus | sickie | fun2knytz and
To All Encoders Past And Present...


[img]http://i824.photobucket.com/albums/zz161/akosipalos/PRESTiGE-3.png[/img]


[b][color=red]PRESTiGE[/color] is the level of respect at which one is regarded by others....RIzE Above Or Sink Below...[/b]


-------------------------------------------------------------------------------
Generated with Cool NFO Creator - http://fly.to/coolbeans
-------------------------------------------------------------------------------
[/pre]